<svg xmlns="http://www.w3.org/2000/svg" xmlns:xlink="http://www.w3.org/1999/xlink" width="860" height="450.78"><rect width="860" height="450.78" rx="5" ry="5" class="a"/><svg y="0%" x="0%"><circle cx="20" cy="20" r="6" fill="#ff5f58"/><circle cx="40" cy="20" r="6" fill="#ffbd2e"/><circle cx="60" cy="20" r="6" fill="#18c132"/></svg><svg height="390.78" viewBox="0 0 82 39.078" width="820" x="15" xmlns="http://www.w3.org/2000/svg" xmlns:xlink="http://www.w3.org/1999/xlink" y="50"><style>@keyframes n{0%{transform:translateX(0)}2.5%{transform:translateX(-82px)}3.3%{transform:translateX(-164px)}4.1%{transform:translateX(-246px)}5.4%{transform:translateX(-328px)}7.1%{transform:translateX(-410px)}9%{transform:translateX(-492px)}9.8%{transform:translateX(-574px)}10.4%{transform:translateX(-656px)}16.4%{transform:translateX(-738px)}24.7%{transform:translateX(-1066px)}25.8%{transform:translateX(-1230px)}26.6%{transform:translateX(-1394px)}27.4%{transform:translateX(-1558px)}28.3%{transform:translateX(-1722px)}29.1%{transform:translateX(-1968px)}29.6%{transform:translateX(-2296px)}30.5%{transform:translateX(-2460px)}31.3%{transform:translateX(-2624px)}32%{transform:translateX(-2952px)}32.8%{transform:translateX(-3116px)}33.6%{transform:translateX(-3280px)}34.4%{transform:translateX(-3444px)}35.4%{transform:translateX(-3690px)}36.2%{transform:translateX(-3854px)}37%{transform:translateX(-4018px)}37.8%{transform:translateX(-4182px)}37.9%{transform:translateX(-4428px)}38.8%{transform:translateX(-4592px)}39.6%{transform:translateX(-4756px)}40.4%{transform:translateX(-4920px)}41.1%{transform:translateX(-5084px)}41.2%{transform:translateX(-5576px)}to{transform:translateX(-5658px)}}.a{fill:#282d35}.f,.g,.h,.i,.j,.k{fill:#b9c0cb;white-space:pre}.g,.h,.i,.j,.k{fill:#a8cc8c}.h,.i,.j,.k{fill:#71bef2}.i,.j,.k{fill:#e88388}.j,.k{fill:#66c2cd}.k{fill:#73bef3}</style><g font-family="Monaco,Consolas,Menlo,'Bitstream Vera Sans Mono','Powerline Symbols',monospace" font-size="1.67"><defs><symbol id="1"><text y="1.67" class="f">&gt;</text><text x="2.004" y="1.67" class="f">node</text></symbol><symbol id="2"><text y="1.67" class="f">&gt;</text><text x="2.004" y="1.67" class="f">node</text><text x="7.014" y="1.67" class="f">index.js</text></symbol><symbol id="3"><text y="1.67" class="g">✔</text><text x="2.004" y="1.67" class="g">Logged</text><text x="9.018" y="1.67" class="g">in</text><text x="12.024" y="1.67" class="g">to</text><text x="15.03" y="1.67" class="g">woffu!</text></symbol><symbol id="4"><text y="1.67" class="g">✔</text><text x="2.004" y="1.67" class="f">Welcome</text><text x="10.02" y="1.67" class="h">John</text><text x="15.03" y="1.67" class="h">Doe</text><text x="19.038" y="1.67" class="f">-</text><text x="21.042" y="1.67" class="i">MegaCorp</text></symbol><symbol id="5"><text y="1.67" class="j">⠋</text><text x="2.004" y="1.67" class="f">Loading</text><text x="10.02" y="1.67" class="f">calendar...</text></symbol><symbol id="6"><text y="1.67" class="j">⠙</text><text x="2.004" y="1.67" class="f">Loading</text><text x="10.02" y="1.67" class="f">calendar...</text></symbol><symbol id="7"><text y="1.67" class="j">⠹</text><text x="2.004" y="1.67" class="f">Loading</text><text x="10.02" y="1.67" class="f">calendar...</text></symbol><symbol id="8"><text y="1.67" class="j">⠸</text><text x="2.004" y="1.67" class="f">Loading</text><text x="10.02" y="1.67" class="f">calendar...</text></symbol><symbol id="9"><text y="1.67" class="g">✔</text><text x="2.004" y="1.67" class="h">31</text><text x="5.01" y="1.67" class="f">days</text><text x="10.02" y="1.67" class="f">this</text><text x="15.03" y="1.67" class="f">month.</text><text x="22.044" y="1.67" class="g">17</text><text x="25.05" y="1.67" class="f">already</text><text x="33.066" y="1.67" class="f">confirmed</text><text x="43.086" y="1.67" class="f">-</text><text x="45.09" y="1.67" class="i">14</text><text x="48.096" y="1.67" class="f">remaining</text></symbol><symbol id="10"><text y="1.67" class="g">✔</text><text x="2.004" y="1.67" class="g">Days</text><text x="7.014" y="1.67" class="g">confirmed!</text></symbol><symbol id="11"><text y="1.67" class="g">✔</text><text x="2.004" y="1.67" class="g">22</text><text x="5.01" y="1.67" class="f">final</text><text x="11.022" y="1.67" class="f">days</text><text x="16.032" y="1.67" class="f">confirmed</text><text x="26.052" y="1.67" class="f">in</text><text x="29.058" y="1.67" class="f">total,</text><text x="36.072" y="1.67" class="k">5</text><text x="38.076" y="1.67" class="f">this</text><text x="43.086" y="1.67" class="f">session.</text><text x="52.104" y="1.67" class="i">9</text><text x="54.108" y="1.67" class="f">days</text><text x="59.118" y="1.67" class="f">remaining</text><text x="69.138" y="1.67" class="f">this</text><text x="74.148" y="1.67" class="f">month</text></symbol><symbol id="12"><text y="1.67" class="f">Done:</text><text x="6.012" y="1.67" class="f">1507.337ms</text></symbol><symbol id="13"><text y="1.67" class="f">&gt;</text></symbol><symbol id="a"><path fill="transparent" d="M0 0h82v18H0z"/></symbol><symbol id="b"><path fill="#6f7683" d="M0 0h1.102v2.171H0z"/></symbol></defs><path class="a" d="M0 0h82v39.078H0z"/><g style="animation-duration:9.794740999999998s;animation-iteration-count:infinite;animation-name:n;animation-timing-function:steps(1,end)"><svg width="5740"><svg><use xlink:href="#a"/><use xlink:href="#b" x="2.996"/><text y="1.67" class="f">&gt;</text><text x="2.004" y="1.67" class="f">n</text></svg><svg x="82"><use xlink:href="#a"/><use xlink:href="#b" x="3.996"/><text y="1.67" class="f">&gt;</text><text x="2.004" y="1.67" class="f">no</text></svg><svg x="164"><use xlink:href="#a"/><use xlink:href="#b" x="4.996"/><text y="1.67" class="f">&gt;</text><text x="2.004" y="1.67" class="f">nod</text></svg><svg x="246"><use xlink:href="#a"/><use xlink:href="#b" x="5.996"/><use xlink:href="#1"/></svg><svg x="328"><use xlink:href="#a"/><use xlink:href="#b" x="6.996"/><use xlink:href="#1"/></svg><svg x="410"><use xlink:href="#a"/><use xlink:href="#b" x="7.996"/><text y="1.67" class="f">&gt;</text><text x="2.004" y="1.67" class="f">node</text><text x="7.014" y="1.67" class="f">i</text></svg><svg x="492"><use xlink:href="#a"/><use xlink:href="#b" x="8.996"/><text y="1.67" class="f">&gt;</text><text x="2.004" y="1.67" class="f">node</text><text x="7.014" y="1.67" class="f">in</text></svg><svg x="574"><use xlink:href="#a"/><use xlink:href="#b" x="9.996"/><text y="1.67" class="f">&gt;</text><text x="2.004" y="1.67" class="f">node</text><text x="7.014" y="1.67" class="f">ind</text></svg><svg x="656"><use xlink:href="#a"/><use xlink:href="#b" x="10.996"/><text y="1.67" class="f">&gt;</text><text x="2.004" y="1.67" class="f">node</text><text x="7.014" y="1.67" class="f">inde</text></svg><svg x="738"><use xlink:href="#a"/><use xlink:href="#b" x="15.996"/><use xlink:href="#2"/></svg><svg x="820"><use xlink:href="#a"/><use xlink:href="#b" x="14.996"/><use xlink:href="#2"/></svg><svg x="902"><use xlink:href="#a"/><use xlink:href="#b" x="-.004" y="2.146"/><use xlink:href="#2"/></svg><svg x="984"><use xlink:href="#a"/><use xlink:href="#b" x="-.004" y="2.146"/><use xlink:href="#2"/></svg><svg x="1066"><use xlink:href="#a"/><use xlink:href="#b" x="-.004" y="2.146"/><use xlink:href="#2"/></svg><svg x="1148"><use xlink:href="#a"/><use xlink:href="#2"/></svg><svg x="1230"><use xlink:href="#a"/><use xlink:href="#2"/><text y="3.841" class="j">⠋</text><text x="2.004" y="3.841" class="f">Logging</text><text x="10.02" y="3.841" class="f">in</text><text x="13.026" y="3.841" class="f">to</text><text x="16.032" y="3.841" class="f">woffu</text><text x="22.044" y="3.841" class="f">as</text><text x="25.05" y="3.841" class="j">john@megacorp.com</text><text x="42.084" y="3.841" class="f">...</text></svg><svg x="1312"><use xlink:href="#a"/><use xlink:href="#2"/></svg><svg x="1394"><use xlink:href="#a"/><use xlink:href="#2"/><text y="3.841" class="j">⠙</text><text x="2.004" y="3.841" class="f">Logging</text><text x="10.02" y="3.841" class="f">in</text><text x="13.026" y="3.841" class="f">to</text><text x="16.032" y="3.841" class="f">woffu</text><text x="22.044" y="3.841" class="f">as</text><text x="25.05" y="3.841" class="j">john@megacorp.com</text><text x="42.084" y="3.841" class="f">...</text></svg><svg x="1476"><use xlink:href="#a"/><use xlink:href="#2"/></svg><svg x="1558"><use xlink:href="#a"/><use xlink:href="#2"/><text y="3.841" class="j">⠹</text><text x="2.004" y="3.841" class="f">Logging</text><text x="10.02" y="3.841" class="f">in</text><text x="13.026" y="3.841" class="f">to</text><text x="16.032" y="3.841" class="f">woffu</text><text x="22.044" y="3.841" class="f">as</text><text x="25.05" y="3.841" class="j">john@megacorp.com</text><text x="42.084" y="3.841" class="f">...</text></svg><svg x="1640"><use xlink:href="#a"/><use xlink:href="#2"/></svg><svg x="1722"><use xlink:href="#a"/><use xlink:href="#2"/><text y="3.841" class="j">⠸</text><text x="2.004" y="3.841" class="f">Logging</text><text x="10.02" y="3.841" class="f">in</text><text x="13.026" y="3.841" class="f">to</text><text x="16.032" y="3.841" class="f">woffu</text><text x="22.044" y="3.841" class="f">as</text><text x="25.05" y="3.841" class="j">john@megacorp.com</text><text x="42.084" y="3.841" class="f">...</text></svg><svg x="1804"><use xlink:href="#a"/><use xlink:href="#2"/></svg><svg x="1886"><use xlink:href="#a"/><use xlink:href="#2"/></svg><svg x="1968"><use xlink:href="#a"/><use xlink:href="#2"/><text y="3.841" class="j">⠼</text><text x="2.004" y="3.841" class="f">Logging</text><text x="10.02" y="3.841" class="f">in</text><text x="13.026" y="3.841" class="f">to</text><text x="16.032" y="3.841" class="f">woffu</text><text x="22.044" y="3.841" class="f">as</text><text x="25.05" y="3.841" class="j">john@megacorp.com</text><text x="42.084" y="3.841" class="f">...</text></svg><svg x="2050"><use xlink:href="#a"/><use xlink:href="#b" x="-.004" y="2.146"/><use xlink:href="#2"/></svg><svg x="2132"><use xlink:href="#a"/><use xlink:href="#b" x="-.004" y="4.317"/><use xlink:href="#2"/><use xlink:href="#3" y="2.171"/></svg><svg x="2214"><use xlink:href="#a"/><use xlink:href="#2"/><use xlink:href="#3" y="2.171"/></svg><svg x="2296"><use xlink:href="#a"/><use xlink:href="#2"/><use xlink:href="#3" y="2.171"/><text y="6.012" class="j">⠋</text><text x="2.004" y="6.012" class="f">Loading</text><text x="10.02" y="6.012" class="f">profile...</text></svg><svg x="2378"><use xlink:href="#a"/><use xlink:href="#2"/><use xlink:href="#3" y="2.171"/></svg><svg x="2460"><use xlink:href="#a"/><use xlink:href="#2"/><use xlink:href="#3" y="2.171"/><text y="6.012" class="j">⠙</text><text x="2.004" y="6.012" class="f">Loading</text><text x="10.02" y="6.012" class="f">profile...</text></svg><svg x="2542"><use xlink:href="#a"/><use xlink:href="#2"/><use xlink:href="#3" y="2.171"/></svg><svg x="2624"><use xlink:href="#a"/><use xlink:href="#2"/><use xlink:href="#3" y="2.171"/><text y="6.012" class="j">⠹</text><text x="2.004" y="6.012" class="f">Loading</text><text x="10.02" y="6.012" class="f">profile...</text></svg><svg x="2706"><use xlink:href="#a"/><use xlink:href="#2"/><use xlink:href="#3" y="2.171"/></svg><svg x="2788"><use xlink:href="#a"/><use xlink:href="#b" x="-.004" y="4.317"/><use xlink:href="#2"/><use xlink:href="#3" y="2.171"/></svg><svg x="2870"><use xlink:href="#a"/><use xlink:href="#2"/><use xlink:href="#3" y="2.171"/><use xlink:href="#4" y="4.342"/></svg><svg x="2952"><use xlink:href="#a"/><use xlink:href="#2"/><use xlink:href="#3" y="2.171"/><use xlink:href="#4" y="4.342"/><use xlink:href="#5" y="6.513"/></svg><svg x="3034"><use xlink:href="#a"/><use xlink:href="#2"/><use xlink:href="#3" y="2.171"/><use xlink:href="#4" y="4.342"/></svg><svg x="3116"><use xlink:href="#a"/><use xlink:href="#2"/><use xlink:href="#3" y="2.171"/><use xlink:href="#4" y="4.342"/><use xlink:href="#6" y="6.513"/></svg><svg x="3198"><use xlink:href="#a"/><use xlink:href="#2"/><use xlink:href="#3" y="2.171"/><use xlink:href="#4" y="4.342"/></svg><svg x="3280"><use xlink:href="#a"/><use xlink:href="#2"/><use xlink:href="#3" y="2.171"/><use xlink:href="#4" y="4.342"/><use xlink:href="#7" y="6.513"/></svg><svg x="3362"><use xlink:href="#a"/><use xlink:href="#2"/><use xlink:href="#3" y="2.171"/><use xlink:href="#4" y="4.342"/></svg><svg x="3444"><use xlink:href="#a"/><use xlink:href="#2"/><use xlink:href="#3" y="2.171"/><use xlink:href="#4" y="4.342"/><use xlink:href="#8" y="6.513"/></svg><svg x="3526"><use xlink:href="#a"/><use xlink:href="#b" x="-.004" y="6.488"/><use xlink:href="#2"/><use xlink:href="#3" y="2.171"/><use xlink:href="#4" y="4.342"/></svg><svg x="3608"><use xlink:href="#a"/><use xlink:href="#b" x="-.004" y="8.659"/><use xlink:href="#2"/><use xlink:href="#3" y="2.171"/><use xlink:href="#4" y="4.342"/><use xlink:href="#9" y="6.513"/></svg><svg x="3690"><use xlink:href="#a"/><use xlink:href="#2"/><use xlink:href="#3" y="2.171"/><use xlink:href="#4" y="4.342"/><use xlink:href="#9" y="6.513"/><text y="10.354" class="j">⠋</text><text x="2.004" y="10.354" class="k">Confirming</text><text x="13.026" y="10.354" class="k">days...</text></svg><svg x="3772"><use xlink:href="#a"/><use xlink:href="#2"/><use xlink:href="#3" y="2.171"/><use xlink:href="#4" y="4.342"/><use xlink:href="#9" y="6.513"/></svg><svg x="3854"><use xlink:href="#a"/><use xlink:href="#2"/><use xlink:href="#3" y="2.171"/><use xlink:href="#4" y="4.342"/><use xlink:href="#9" y="6.513"/><text y="10.354" class="j">⠙</text><text x="2.004" y="10.354" class="k">Confirming</text><text x="13.026" y="10.354" class="k">days...</text></svg><svg x="3936"><use xlink:href="#a"/><use xlink:href="#2"/><use xlink:href="#3" y="2.171"/><use xlink:href="#4" y="4.342"/><use xlink:href="#9" y="6.513"/></svg><svg x="4018"><use xlink:href="#a"/><use xlink:href="#2"/><use xlink:href="#3" y="2.171"/><use xlink:href="#4" y="4.342"/><use xlink:href="#9" y="6.513"/><text y="10.354" class="j">⠹</text><text x="2.004" y="10.354" class="k">Confirming</text><text x="13.026" y="10.354" class="k">days...</text></svg><svg x="4100"><use xlink:href="#a"/><use xlink:href="#2"/><use xlink:href="#3" y="2.171"/><use xlink:href="#4" y="4.342"/><use xlink:href="#9" y="6.513"/></svg><svg x="4182"><use xlink:href="#a"/><use xlink:href="#2"/><use xlink:href="#3" y="2.171"/><use xlink:href="#4" y="4.342"/><use xlink:href="#9" y="6.513"/><text y="10.354" class="j">⠸</text><text x="2.004" y="10.354" class="k">Confirming</text><text x="13.026" y="10.354" class="k">days...</text></svg><svg x="4264"><use xlink:href="#a"/><use xlink:href="#b" x="-.004" y="8.659"/><use xlink:href="#2"/><use xlink:href="#3" y="2.171"/><use xlink:href="#4" y="4.342"/><use xlink:href="#9" y="6.513"/></svg><svg x="4346"><use xlink:href="#a"/><use xlink:href="#2"/><use xlink:href="#3" y="2.171"/><use xlink:href="#4" y="4.342"/><use xlink:href="#9" y="6.513"/><use xlink:href="#10" y="8.684"/></svg><svg x="4428"><use xlink:href="#a"/><use xlink:href="#2"/><use xlink:href="#3" y="2.171"/><use xlink:href="#4" y="4.342"/><use xlink:href="#9" y="6.513"/><use xlink:href="#10" y="8.684"/><use xlink:href="#5" y="10.855"/></svg><svg x="4510"><use xlink:href="#a"/><use xlink:href="#2"/><use xlink:href="#3" y="2.171"/><use xlink:href="#4" y="4.342"/><use xlink:href="#9" y="6.513"/><use xlink:href="#10" y="8.684"/></svg><svg x="4592"><use xlink:href="#a"/><use xlink:href="#2"/><use xlink:href="#3" y="2.171"/><use xlink:href="#4" y="4.342"/><use xlink:href="#9" y="6.513"/><use xlink:href="#10" y="8.684"/><use xlink:href="#6" y="10.855"/></svg><svg x="4674"><use xlink:href="#a"/><use xlink:href="#2"/><use xlink:href="#3" y="2.171"/><use xlink:href="#4" y="4.342"/><use xlink:href="#9" y="6.513"/><use xlink:href="#10" y="8.684"/></svg><svg x="4756"><use xlink:href="#a"/><use xlink:href="#2"/><use xlink:href="#3" y="2.171"/><use xlink:href="#4" y="4.342"/><use xlink:href="#9" y="6.513"/><use xlink:href="#10" y="8.684"/><use xlink:href="#7" y="10.855"/></svg><svg x="4838"><use xlink:href="#a"/><use xlink:href="#2"/><use xlink:href="#3" y="2.171"/><use xlink:href="#4" y="4.342"/><use xlink:href="#9" y="6.513"/><use xlink:href="#10" y="8.684"/></svg><svg x="4920"><use xlink:href="#a"/><use xlink:href="#2"/><use xlink:href="#3" y="2.171"/><use xlink:href="#4" y="4.342"/><use xlink:href="#9" y="6.513"/><use xlink:href="#10" y="8.684"/><use xlink:href="#8" y="10.855"/></svg><svg x="5002"><use xlink:href="#a"/><use xlink:href="#b" x="-.004" y="10.83"/><use xlink:href="#2"/><use xlink:href="#3" y="2.171"/><use xlink:href="#4" y="4.342"/><use xlink:href="#9" y="6.513"/><use xlink:href="#10" y="8.684"/></svg><svg x="5084"><use xlink:href="#a"/><use xlink:href="#b" x="-.004" y="13.001"/><use xlink:href="#2"/><use xlink:href="#3" y="2.171"/><use xlink:href="#4" y="4.342"/><use xlink:href="#9" y="6.513"/><use xlink:href="#10" y="8.684"/><use xlink:href="#11" y="10.855"/></svg><svg x="5166"><use xlink:href="#a"/><use xlink:href="#b" x="-.004" y="15.172"/><use xlink:href="#2"/><use xlink:href="#3" y="2.171"/><use xlink:href="#4" y="4.342"/><use xlink:href="#9" y="6.513"/><use xlink:href="#10" y="8.684"/><use xlink:href="#11" y="10.855"/><use xlink:href="#12" y="13.026"/></svg><svg x="5248"><use xlink:href="#a"/><use xlink:href="#b" x="-.004" y="15.172"/><use xlink:href="#2"/><use xlink:href="#3" y="2.171"/><use xlink:href="#4" y="4.342"/><use xlink:href="#9" y="6.513"/><use xlink:href="#10" y="8.684"/><use xlink:href="#11" y="10.855"/><use xlink:href="#12" y="13.026"/></svg><svg x="5330"><use xlink:href="#a"/><use xlink:href="#b" x="-.004" y="15.172"/><use xlink:href="#2"/><use xlink:href="#3" y="2.171"/><use xlink:href="#4" y="4.342"/><use xlink:href="#9" y="6.513"/><use xlink:href="#10" y="8.684"/><use xlink:href="#11" y="10.855"/><use xlink:href="#12" y="13.026"/></svg><svg x="5412"><use xlink:href="#a"/><use xlink:href="#b" x="-.004" y="15.172"/><use xlink:href="#2"/><use xlink:href="#3" y="2.171"/><use xlink:href="#4" y="4.342"/><use xlink:href="#9" y="6.513"/><use xlink:href="#10" y="8.684"/><use xlink:href="#11" y="10.855"/><use xlink:href="#12" y="13.026"/></svg><svg x="5494"><use xlink:href="#a"/><use xlink:href="#b" x="1.996" y="15.172"/><use xlink:href="#2"/><use xlink:href="#3" y="2.171"/><use xlink:href="#4" y="4.342"/><use xlink:href="#9" y="6.513"/><use xlink:href="#10" y="8.684"/><use xlink:href="#11" y="10.855"/><use xlink:href="#12" y="13.026"/><use xlink:href="#13" y="15.197"/></svg><svg x="5576"><use xlink:href="#a"/><use xlink:href="#b" x="1.996" y="15.172"/><use xlink:href="#2"/><use xlink:href="#3" y="2.171"/><use xlink:href="#4" y="4.342"/><use xlink:href="#9" y="6.513"/><use xlink:href="#10" y="8.684"/><use xlink:href="#11" y="10.855"/><use xlink:href="#12" y="13.026"/><use xlink:href="#13" y="15.197"/></svg><svg x="5658"><use xlink:href="#a"/><use xlink:href="#b" x="-.004" y="17.343"/><use xlink:href="#2"/><use xlink:href="#3" y="2.171"/><use xlink:href="#4" y="4.342"/><use xlink:href="#9" y="6.513"/><use xlink:href="#10" y="8.684"/><use xlink:href="#11" y="10.855"/><use xlink:href="#12" y="13.026"/><use xlink:href="#13" y="15.197"/></svg></svg></g></g></svg></svg>